<?xml version="1.0" encoding="UTF-8"?>
<svg width="5px" height="5px" viewBox="0 0 95 14" version="1.1" xmlns="http://www.w3.org/2000/svg" xmlns:xlink="http://www.w3.org/1999/xlink">
    <!-- Generator: Sketch 64 (93537) - https://sketch.com -->
    <title>stars review</title>
    <desc>Created with Sketch.</desc>
    <g id="site" stroke="none" stroke-width="1" fill="none" fill-rule="evenodd">
        <g id="Desktop-HD-Copy-3" transform="translate(-842.000000, -3997.000000)" fill="#FF961A">
            <g id="Group-6" transform="translate(217.000000, 3772.000000)">
                <g id="stars-review" transform="translate(625.000000, 225.000000)">
                    <polygon id="Star" points="7.5 11.25 3.09161061 13.5676275 3.93353806 8.65881373 0.367076128 5.18237254 5.2958053 4.46618627 7.5 0 9.7041947 4.46618627 14.6329239 5.18237254 11.0664619 8.65881373 11.9083894 13.5676275"></polygon>
                    <polygon id="Star" points="27.5 11.25 23.0916106 13.5676275 23.9335381 8.65881373 20.3670761 5.18237254 25.2958053 4.46618627 27.5 0 29.7041947 4.46618627 34.6329239 5.18237254 31.0664619 8.65881373 31.9083894 13.5676275"></polygon>
                    <polygon id="Star" points="47.5 11.25 43.0916106 13.5676275 43.9335381 8.65881373 40.3670761 5.18237254 45.2958053 4.46618627 47.5 0 49.7041947 4.46618627 54.6329239 5.18237254 51.0664619 8.65881373 51.9083894 13.5676275"></polygon>
                    <polygon id="Star" points="67.5 11.25 63.0916106 13.5676275 63.9335381 8.65881373 60.3670761 5.18237254 65.2958053 4.46618627 67.5 0 69.7041947 4.46618627 74.6329239 5.18237254 71.0664619 8.65881373 71.9083894 13.5676275"></polygon>
                    <polygon id="Star" points="87.5 11.25 83.0916106 13.5676275 83.9335381 8.65881373 80.3670761 5.18237254 85.2958053 4.46618627 87.5 0 89.7041947 4.46618627 94.6329239 5.18237254 91.0664619 8.65881373 91.9083894 13.5676275"></polygon>
                </g>
            </g>
        </g>
    </g>
</svg>